<svg width="12" height="10" viewBox="0 0 12 10" fill="none" xmlns="http://www.w3.org/2000/svg">
<g clip-path="url(#clip0_345_98)">
<path d="M7.26094 0.621874L11.1492 4.74687C11.2172 4.81953 11.25 4.90859 11.25 5C11.25 5.0914 11.2166 5.18091 11.149 5.25242L7.2607 9.37742C7.11563 9.5304 6.86953 9.54174 6.71016 9.40259C6.54989 9.26307 6.54002 9.02548 6.68358 8.87267L9.98203 5.375L1.13883 5.375C0.923883 5.375 0.75 5.20728 0.75 5.02109C0.75 4.8349 0.923906 4.625 1.13883 4.625L9.9818 4.625L6.68414 1.12812C6.54059 0.975404 6.55045 0.737654 6.71072 0.598201C6.86953 0.457811 7.11562 0.46953 7.26094 0.621874Z" fill="white"/>
</g>
<defs>
<clipPath id="clip0_345_98">
<rect width="9" height="12" fill="white" transform="translate(0 9.5) rotate(-90)"/>
</clipPath>
</defs>
</svg>
