<svg id="expandido" xmlns="http://www.w3.org/2000/svg" viewBox="0 0 688 643.4"><defs><style>.cls-1{fill:none;stroke:#000;stroke-miterlimit:10;stroke-width:30px;}</style></defs><path d="M193.9,819.5,169.7,698.8l-.8.2c2.4-.6,60.9-14.6,122.8-82.7C376.4,523,425.7,372.5,434.3,181l122.9,5.5C532.3,745.2,207.7,816.7,193.9,819.5Z" transform="translate(-156 -181)"/><path d="M799.5,819.5c-6-1.2-148-31.5-252.7-207.2l105.7-63c75.2,126.2,168.1,148.8,172,149.7l-.8-.2Z" transform="translate(-156 -181)"/><path class="cls-1" d="M517.3,175.7" transform="translate(-156 -181)"/><path class="cls-1" d="M499.2,180.2" transform="translate(-156 -181)"/><rect x="280.9" y="524.7" width="118.7" height="118.7"/><path d="M504.8,485.7A768,768,0,0,1,366.1,473C241.2,450.2,159.4,404.2,156,402.2l60.7-107c.7.4,70.4,39,176,57.6,138.8,24.5,271.7,4.7,395-58.8L844,403.4A737.4,737.4,0,0,1,504.8,485.7Z" transform="translate(-156 -181)"/></svg>