<svg width="162" height="32" viewBox="0 0 162 32" fill="none" xmlns="http://www.w3.org/2000/svg">
<g clip-path="url(#clip0_227_753)">
<path d="M1.25423 32L0.0393483 25.9551L0 25.965C0.122963 25.9354 3.05441 25.2321 6.15801 21.8186C10.4027 17.1411 12.8718 9.59607 13.2997 0L19.4627 0.275438C18.2133 28.2767 1.94774 31.8623 1.25423 32Z" fill="#E9E9E9"/>
<path d="M31.6018 32C31.3017 31.9409 24.1846 30.4211 18.9365 21.6169L24.2338 18.4592C28.0063 24.7845 32.6592 25.9157 32.856 25.96L32.8166 25.9502L31.6018 31.995V32Z" fill="#E9E9E9"/>
</g>
<g clip-path="url(#clip1_227_753)">
<path d="M56.8988 32L55.6839 25.9551L55.6445 25.965C55.7675 25.9354 58.6989 25.2321 61.8025 21.8186C66.0472 17.1411 68.5163 9.59607 68.9492 0L75.1121 0.275438C73.8579 28.2767 57.5923 31.8623 56.8988 32Z" fill="#E9E9E9"/>
<path d="M87.2512 32C86.9511 31.9409 79.834 30.4211 74.5859 21.6169L79.8832 18.4592C83.6557 24.7845 88.3087 25.9157 88.5054 25.96L88.4661 25.9502L87.2512 31.995V32Z" fill="#E9E9E9"/>
<path d="M72.4805 15.272C70.1786 15.272 67.8521 15.0605 65.5306 14.6325C59.2693 13.4914 55.1721 11.1846 55 11.0863L58.0397 5.72016C58.0741 5.73983 61.5662 7.67281 66.8586 8.60734C73.8134 9.83205 80.4731 8.84343 86.6557 5.66113L89.474 11.1453C84.162 13.88 78.3827 15.267 72.4706 15.267L72.4805 15.272Z" fill="#E9E9E9"/>
</g>
<g clip-path="url(#clip2_227_753)">
<path d="M113.254 32L112.039 25.9551L112 25.965C112.123 25.9354 115.054 25.2321 118.158 21.8186C122.403 17.1411 124.872 9.59607 125.3 0L131.463 0.275438C130.213 28.2767 113.948 31.8623 113.254 32Z" fill="#E9E9E9"/>
</g>
<g clip-path="url(#clip3_227_753)">
<path d="M162 24H154V32H162V24Z" fill="#E9E9E9"/>
</g>
<defs>
<clipPath id="clip0_227_753">
<rect width="32.8558" height="32" fill="white"/>
</clipPath>
<clipPath id="clip1_227_753">
<rect width="34.4789" height="32" fill="white" transform="translate(55)"/>
</clipPath>
<clipPath id="clip2_227_753">
<rect width="19.4627" height="32" fill="white" transform="translate(112)"/>
</clipPath>
<clipPath id="clip3_227_753">
<rect width="8" height="8" fill="white" transform="translate(154 24)"/>
</clipPath>
</defs>
</svg>
