<svg width="18" height="14" viewBox="0 0 18 14" fill="none" xmlns="http://www.w3.org/2000/svg">
<g clip-path="url(#clip0_227_490)">
<path d="M7.10859 13.3172L1.27617 7.12966C1.17422 7.02068 1.125 6.88708 1.125 6.74997C1.125 6.61286 1.17513 6.4786 1.27652 6.37134L7.10894 0.18384C7.32656 -0.0456246 7.6957 -0.0626402 7.93477 0.146082C8.17516 0.355368 8.18997 0.711747 7.97463 0.940965L3.02695 6.18747L16.2918 6.18747C16.6142 6.18747 16.875 6.43905 16.875 6.71833C16.875 6.99761 16.6141 7.31247 16.2918 7.31247L3.0273 7.31247L7.97379 12.5578C8.18912 12.7869 8.17432 13.1435 7.93392 13.3527C7.6957 13.5633 7.32656 13.5457 7.10859 13.3172Z" fill="#E9E9E9"/>
</g>
<defs>
<clipPath id="clip0_227_490">
<rect width="13.5" height="18" fill="white" transform="translate(18) rotate(90)"/>
</clipPath>
</defs>
</svg>
